<svg viewBox="0 0 141 20" version="1.1" xmlns="http://www.w3.org/2000/svg" xmlns:xlink="http://www.w3.org/1999/xlink">
                    <title>kakaoenterprise</title>
                    <g id="common" stroke="none" stroke-width="1" fill="none" fill-rule="evenodd">
                      <g id="-common" transform="translate(-134.000000, -1013.000000)" fill="#333333" fill-rule="nonzero">
                        <g id="footer_default_mo" transform="translate(118.000000, 978.000000)">
                          <g id="Group" transform="translate(16.000000, 33.000000)">
                            <g id="CI-Copy-11" transform="translate(0.000000, 2.000000)">
                              <path d="M2.33712814,10.4419432 L6.86111762,16.0209974 L8.19113856,14.9851157 L4.3545397,10.3492254 L7.67319771,6.1641355 L6.32719095,5.18580279 L2.33712814,10.4419432 Z M0,1.18934565 L0,15.7588298 L1.72007515,15.7588298 L1.72007515,0.812080091 L0,1.18934565 Z" id="Shape"></path>
                              <path d="M9.71298944,12.9868871 C9.71298944,11.9446111 10.0582833,11.1485168 10.7520683,10.6049987 C11.4458533,10.0614805 12.4497633,9.78332709 13.7701927,9.78332709 L15.7524355,9.78332709 L15.7524355,9.12471095 C15.7524355,7.53039098 15.0543876,6.73216527 13.6582919,6.73003383 C13.1823161,6.73436001 12.7087156,6.79772153 12.2483419,6.91866661 C11.7833864,7.03604327 11.3297462,7.19438935 10.8927436,7.39184713 L10.3875914,6.16733266 C10.9071742,5.87290463 11.4628009,5.64721489 12.0405261,5.49592786 C12.6044294,5.34262198 13.1858337,5.26309533 13.7701927,5.2593376 C16.1893815,5.2593376 17.3989758,6.56058405 17.3989758,9.16307694 L17.3989758,15.7588298 L16.1201095,15.7588298 L15.9154909,14.6270331 C15.4227558,15.0295218 14.8705326,15.3530901 14.2785421,15.5861829 C13.7527171,15.802275 13.1908523,15.9172512 12.6224102,15.9250824 C11.832049,15.9693064 11.0583772,15.6859737 10.4835064,15.1417768 C9.94156663,14.5581617 9.66100243,13.7788167 9.70659511,12.98369 M12.9357325,14.5311182 C13.1838594,14.529496 13.4308393,14.4972813 13.6710806,14.4352032 C13.9308997,14.3712609 14.1861721,14.2900864 14.4352032,14.1922186 C14.9204713,13.9999026 15.3651705,13.7178982 15.7460411,13.3609555 L15.7460411,10.9534897 L13.9652198,10.9534897 C13.0614877,10.9534897 12.4007401,11.1101509 11.9829771,11.4234731 C11.5445567,11.7886579 11.3118538,12.344758 11.3595298,12.9133523 C11.3595298,13.9939943 11.8870621,14.5343153 12.9421268,14.5343153" id="Shape"></path>
                              <path d="M22.1787386,15.7588298 L20.4618606,15.7588298 L20.4618606,1.18934565 L22.1819357,0.812080091 L22.1787386,15.7588298 Z M26.77946,5.18580279 L28.1350583,6.16733266 L24.8164003,10.3492254 L28.6529991,14.9851157 L27.3261754,16.0209974 L22.7989887,10.4419432 L26.77946,5.18580279 Z" id="Shape"></path>
                              <path d="M30.1716528,12.9868871 C30.1156688,12.072175 30.5021741,11.1861859 31.2107317,10.6049987 C31.9013195,10.0572176 32.907361,9.78332709 34.2288561,9.78332709 L36.2110989,9.78332709 L36.2110989,9.12471095 C36.2110989,7.53039098 35.5141168,6.73216527 34.1201525,6.73003383 C33.6431057,6.7340955 33.168415,6.79745919 32.7070053,6.91866661 C32.2420498,7.03604327 31.7884096,7.19438935 31.351407,7.39184713 L30.8462548,6.16733266 C31.3658376,5.87290463 31.9214643,5.64721489 32.4991895,5.49592786 C33.0630928,5.34262198 33.6444971,5.26309533 34.2288561,5.2593376 C36.6480449,5.2593376 37.8576392,6.56058405 37.8576392,9.16307694 L37.8576392,15.7588298 L36.5787729,15.7588298 L36.3741543,14.6270331 C35.8818968,15.0302083 35.3295614,15.3538423 34.7372055,15.5861829 C34.2124005,15.801955 33.6516432,15.9169265 33.0842708,15.9250824 C32.2928219,15.9702011 31.5178189,15.6868045 30.9421698,15.1417768 C30.40023,14.5581617 30.1196658,13.7788167 30.1652585,12.98369 M33.3943959,14.5311182 C33.6425361,14.5296925 33.8895401,14.4974745 34.129744,14.4352032 C34.3896948,14.3717291 34.6449985,14.2905447 34.8938666,14.1922186 C35.3791347,13.9999026 35.8238339,13.7178982 36.2047045,13.3609555 L36.2047045,10.9534897 L34.4174889,10.9534897 C33.5137567,10.9534897 32.8530092,11.1101509 32.4352462,11.4234731 C31.9908685,11.7853358 31.751976,12.3419554 31.795813,12.9133523 C31.795813,13.9939943 32.328674,14.5343153 33.3943959,14.5343153" id="Shape"></path>
                              <path d="M44.779503,5.27852059 C46.1990446,5.27852059 47.3137897,5.74424107 48.1237383,6.67568201 C48.933687,7.60712296 49.339727,8.93820962 49.3418585,10.668942 C49.3418585,12.374097 48.9400813,13.6870664 48.136527,14.6078501 C47.3329727,15.5286339 46.2139647,15.98796 44.779503,15.985836 C43.35783,15.985836 42.2420191,15.5275682 41.4320705,14.6110473 C40.6221218,13.6945265 40.2171475,12.3815571 40.2171475,10.6721392 C40.2171475,8.93927534 40.625319,7.60818868 41.441662,6.67887918 C42.258005,5.74956968 43.3706186,5.2838492 44.779503,5.28171776 M44.779503,6.67887918 C43.9618547,6.63927263 43.1814229,7.02344804 42.7141339,7.69557787 C42.2313619,8.37337701 41.9915745,9.36769554 41.9915745,10.6721392 C41.9915745,11.9765828 42.2313619,12.945324 42.7141339,13.6039401 C43.2215957,14.2313492 43.985347,14.5959127 44.7922917,14.5959127 C45.5992363,14.5959127 46.3629876,14.2313492 46.8704494,13.6039401 C47.3500242,12.945324 47.5898117,11.968057 47.5898117,10.6721392 C47.5898117,9.36769554 47.3500242,8.37337701 46.8704494,7.69557787 C46.3966054,7.0208316 45.6093319,6.63685465 44.7858973,6.67887918" id="Shape"></path>
                              <path d="M60.5255441,10.1829728 C60.5211864,10.5781086 60.4880615,10.9724026 60.426432,11.3627269 L54.233522,11.3627269 C54.3134512,12.9964786 55.2150519,13.8788964 57.0853938,13.8788964 C57.9913249,13.8549014 58.8848027,13.6618929 59.7198584,13.3098009 L60.3081369,15.1002137 C59.2037696,15.659501 57.9873799,15.9622323 56.7496914,15.9858286 C53.2711751,15.9858286 51.5606915,14.0995008 51.5606915,10.5026894 C51.5606915,7.0401589 53.3479071,5.01634891 56.1997789,5.01634891 C58.9717216,5.01315584 60.5255441,6.88030062 60.5255441,10.1829728 Z M54.214339,9.59149714 L57.9678116,9.59149714 C57.9678116,7.82026734 57.4178991,7.01458158 56.1198498,7.01458158 C54.9209126,6.99859575 54.252705,7.94175963 54.214339,9.59149714 Z" id="Shape"></path>
                              <path d="M62.3447314,5.32967525 L64.2118762,5.32967525 L64.5827474,6.3687541 C65.4923462,5.54632823 66.6603225,5.06692655 67.8854196,5.01315584 C70.2065619,5.01315584 71.3639359,6.44868325 71.3639359,9.04478181 L71.3639359,15.6884922 L68.7390629,15.6884922 L68.7390629,8.952064 C68.7390629,7.79149285 68.3074455,7.30232649 66.9134812,7.30232649 C66.2470759,7.32398137 65.5889799,7.4568973 64.9664073,7.69557787 L64.9664073,15.6884922 L62.3447314,15.6884922 L62.3447314,5.32967525 Z" id="Path"></path>
                              <path d="M72.6555909,5.52470235 L74.3085255,5.32967525 L74.3085255,3.2451232 L76.9813561,2.67283054 L76.9813561,5.32967525 L80.0890011,5.32967525 L80.0890011,7.31511515 L76.9813561,7.31511515 L76.9813561,11.8295131 C76.9813561,13.428096 77.3937904,13.7478126 78.1611102,13.7478126 C78.7471181,13.7286709 79.3255706,13.6097368 79.8715939,13.3961243 L80.4822525,15.2440861 C79.5501828,15.7386989 78.5096836,15.9936047 77.4545366,15.9858286 C75.2708724,15.9858286 74.3085255,14.6494133 74.3085255,11.9957658 L74.3085255,7.31511515 L72.6555909,7.31511515 L72.6555909,5.52470235 Z" id="Path"></path>
                              <path d="M90.3327201,10.1829728 C90.3283624,10.5781086 90.2952374,10.9724026 90.233608,11.3627269 L84.040698,11.3627269 C84.1206271,12.9964786 85.025425,13.8788964 86.8925698,13.8788964 C87.7963404,13.8541093 88.6875775,13.6611164 89.52064,13.3098009 L90.1089185,15.1002137 C89.0064874,15.6585687 87.7923882,15.9612739 86.5568674,15.9858286 C83.0783511,15.9858286 81.3678674,14.0995008 81.3678674,10.5026894 C81.3678674,7.0401589 83.1550831,5.01634891 86.0069549,5.01634891 C88.7788976,5.01315584 90.3327201,6.88030062 90.3327201,10.1829728 Z M84.021515,9.59149714 L87.7781847,9.59149714 C87.7781847,7.82026734 87.225075,7.01458158 85.9270257,7.01458158 C84.7248914,6.99859575 84.059881,7.94175963 84.021515,9.59149714 Z" id="Shape"></path>
                              <path d="M94.6776683,7.86502766 L94.6776683,15.6884922 L92.0432037,15.6884922 L92.0432037,5.32967525 L93.9327287,5.32967525 L94.3451631,6.46786624 C95.190531,5.57279015 96.3564476,5.04962245 97.5870891,5.01315584 C97.8857407,5.00299307 98.184236,5.03747629 98.472704,5.11546514 L98.1977477,7.67319771 C97.0322224,7.38379847 95.8064889,7.45288527 94.6808655,7.87142199 L94.6776683,7.86502766 Z" id="Path"></path>
                              <path d="M102.347669,15.7684213 L102.347669,19.678555 L99.7132043,19.678555 L99.7132043,5.32967525 L101.580349,5.32967525 L101.900066,6.19290999 C102.681528,5.40351676 103.756883,4.97592435 104.867035,5.01315584 C107.578232,5.01315584 108.799549,7.03696174 108.799549,10.3204509 C108.799549,13.7606012 106.833292,15.9826314 104.003801,15.9826314 C103.444352,15.9908264 102.886622,15.9186876 102.347669,15.7684213 Z M102.347669,7.51014226 L102.347669,13.9396425 C102.66003,13.9838393 102.975415,14.0030832 103.290833,13.9971915 C105.375385,13.9971915 106.120324,12.5616641 106.120324,10.3204509 C106.120324,8.4021515 105.669524,7.12328521 103.95904,7.12328521 C103.401131,7.14081922 102.85273,7.27247893 102.347669,7.51014226 L102.347669,7.51014226 Z" id="Shape"></path>
                              <path d="M113.377891,7.86502766 L113.377891,15.6884922 L110.743426,15.6884922 L110.743426,5.32967525 L112.629754,5.32967525 L113.042188,6.46786624 C113.888746,5.57260135 115.055711,5.0494795 116.287311,5.01315584 C116.585796,5.00214204 116.884261,5.03554421 117.172926,5.11226798 L116.89797,7.67000055 C116.402313,7.54739162 115.893077,7.48830308 115.382513,7.49415643 C114.697902,7.50108295 114.019666,7.62656209 113.377891,7.86502766 L113.377891,7.86502766 Z" id="Path"></path>
                              <path d="M117.780388,1.94707392 L119.698687,0 L121.616987,1.94707392 L119.698687,3.86537335 L117.780388,1.94707392 Z M121.025511,5.32967525 L121.025511,15.6884922 L118.391046,15.6884922 L118.391046,5.32967525 L121.025511,5.32967525 Z" id="Shape"></path>
                              <path d="M127.729967,9.59149714 C129.872068,10.3396339 130.607417,11.19008 130.607417,12.6959451 C130.620205,14.8028773 129.264607,15.9858286 126.607762,15.9858286 C125.301836,15.9695575 124.009625,15.7171808 122.793544,15.240889 L123.324273,13.1947029 C124.362323,13.6141686 125.466338,13.8468775 126.585382,13.8820935 C127.688404,13.8820935 128.081656,13.5112223 128.081656,12.9005637 C128.081656,12.289905 127.806699,11.9957658 126.03547,11.3851071 C123.912552,10.6593505 123.15802,9.91121371 123.15802,8.18794139 C123.15802,6.32079662 124.69266,5.02274734 126.972239,5.02274734 C128.196307,5.01373527 129.406457,5.28265738 130.511502,5.8092501 L129.785745,7.72754953 C128.985214,7.32488143 128.104741,7.10640181 127.208829,7.08811639 C126.2273,7.08811639 125.67419,7.51973376 125.67419,8.1687584 C125.664598,8.7282624 126.236891,9.08314779 127.729967,9.59149714 Z" id="Path"></path>
                              <path d="M140.883107,10.1829728 C140.879527,10.5780181 140.847473,10.9722914 140.787192,11.3627269 L134.600677,11.3627269 C134.680606,12.9964786 135.585404,13.8788964 137.452548,13.8788964 C138.358552,13.8555022 139.25214,13.6624699 140.087013,13.3098009 L140.678489,15.1002137 C139.570947,15.660174 138.35129,15.9629025 137.110452,15.9858286 C133.628738,15.9858286 131.918255,14.0995008 131.918255,10.5026894 C131.918255,7.0401589 133.708667,5.01634891 136.560539,5.01634891 C139.332482,5.01315584 140.883107,6.88030062 140.883107,10.1829728 Z M134.571902,9.59149714 L138.328572,9.59149714 C138.328572,7.82026734 137.778659,7.01458158 136.48061,7.01458158 C135.281673,6.99859575 134.600677,7.94175963 134.571902,9.59149714 Z" id="Shape"></path>
                            </g>
                          </g>
                        </g>
                      </g>
                    </g>
                  </svg>